{"title":"Os Pinguins de Madagascar 720p HDRip Dual Áudio - [jcmoc]","uid":13235761,"size":4310781361,"categoryP":"video","categoryS":"movies","magnet":"?xt=urn:btih:e7633dbfb7b17d848852f235ba39ecfe82cee288&amp;dn=Os+Pinguins+de+Madagascar+720p+HDRip+Dual+%26Aacute%3Budio+-+%5Bjcmoc%5D&amp;tr=udp%3A%2F%2Ftracker.leechers-paradise.org%3A6969&amp;tr=udp%3A%2F%2Fzer0day.ch%3A1337&amp;tr=udp%3A%2F%2Fopen.demonii.com%3A1337&amp;tr=udp%3A%2F%2Ftracker.coppersurfer.tk%3A6969&amp;tr=udp%3A%2F%2Fexodus.desync.com%3A6969","seeders":0,"leechers":1,"uploader":"jcmoc","files":2,"time":1453001877,"description":"\nObs: A Imagem Está Excelente, Porém Há Eco No Som, A Conversão Já Veio Assim !!!...\r\n\r\n\r\n\r\nGeneral\r\nUnique ID                      : 200312484933804040735596593387367818407 (0x96B2C803123B275884233B16EE83E4A7)\r\nComplete name                  : G:Meus documentos - Windows 7DownloadsOs Pinguins de Madagascar 720p HDRip Dual Áudio - [jcmoc]Os Pinguins de Madagascar 720p HDRip Dual Áudio - [jcmoc].mkv\r\nFormat                         : Matroska\r\nFormat version                 : Version 4 / Version 2\r\nFile size                      : 4.01 GiB\r\nDuration                       : 1h 28mn\r\nOverall bit rate               : 6 513 Kbps\r\nMovie name                     : Os.Pinguins.de.Madagascar.2014.720p.HDRip.x264.AC3.Dual-SynysteR\r\nEncoded date                   : UTC 2015-01-10 21:18:16\r\nWriting application            : mkvmerge v6.6.0 ('The Edge Of The In Between') built on Dec  1 2013 17:55:00\r\nWriting library                : libebml v1.3.0 + libmatroska v1.4.1\r\n\r\nVideo\r\nID                             : 1\r\nFormat                         : AVC\r\nFormat/Info                    : Advanced Video Codec\r\nFormat profile                 :   \r\nFormat settings, CABAC         : No\r\nFormat settings, ReFrames      : 1 frame\r\nCodec ID                       : V_MPEG4/ISO/AVC\r\nBit rate                       : 5 200 Kbps\r\nWidth                          : 1 280 pixels\r\nHeight                         : 608 pixels\r\nDisplay aspect ratio           : 2.105\r\nFrame rate mode                : Variable\r\nOriginal frame rate            : 25.000 fps\r\nColor space                    : YUV\r\nChroma subsampling             : 4:2:0\r\nBit depth                      : 8 bits\r\nScan type                      : Progressive\r\nBits/(Pixel*Frame)             : 0.267\r\nWriting library                : x264 core 116 r2019 9cc407d\r\nEncoding settings              : cabac=0 / ref=1 / deblock=1:0:0 / analyse=0x3:0x113 / me=hex / subme=7 / psy=1 / psy_rd=1.00:0.00 / mixed_ref=0 / me_range=16 / chroma_me=1 / trellis=1 / 8x8dct=1 / cqm=0 / deadzone=21,11 / fast_pskip=1 / chroma_qp_offset=-2 / threads=12 / sliced_threads=0 / nr=0 / decimate=1 / interlaced=0 / bluray_compat=0 / constrained_intra=0 / bframes=0 / weightp=2 / keyint=250 / keyint_min=25 / scenecut=40 / intra_refresh=0 / rc_lookahead=40 / rc=abr / mbtree=1 / bitrate=5200 / ratetol=1.0 / qcomp=0.60 / qpmin=0 / qpmax=69 / qpstep=4 / ip_ratio=1.40 / aq=1:1.00\r\nDefault                        : No\r\nForced                         : No\r\n\r\nAudio #1\r\nID                             : 2\r\nFormat                         : AC-3\r\nFormat/Info                    : Audio Coding 3\r\nMode extension                 : CM (complete main)\r\nFormat settings, Endianness    : Big\r\nCodec ID                       : A_AC3\r\nDuration                       : 1h 28mn\r\nBit rate mode                  : Constant\r\nBit rate                       : 640 Kbps\r\nChannel count                  : 6 channels\r\nChannel positions              : Front: L C R, Side: L R, LFE\r\nSampling rate                  : 48.0 KHz\r\nBit depth                      : 16 bits\r\nCompression mode               : Lossy\r\nDelay relative to video        : 240ms\r\nStream size                    : 404 MiB (10%)\r\nLanguage                       : Portuguese\r\nDefault                        : No\r\nForced                         : No\r\n\r\nAudio #2\r\nID                             : 3\r\nFormat                         : AC-3\r\nFormat/Info                    : Audio Coding 3\r\nMode extension                 : CM (complete main)\r\nFormat settings, Endianness    : Big\r\nCodec ID                       : A_AC3\r\nDuration                       : 1h 28mn\r\nBit rate mode                  : Constant\r\nBit rate                       : 640 Kbps\r\nChannel count                  : 6 channels\r\nChannel positions              : Front: L C R, Side: L R, LFE\r\nSampling rate                  : 48.0 KHz\r\nBit depth                      : 16 bits\r\nCompression mode               : Lossy\r\nStream size                    : 404 MiB (10%)\r\nLanguage                       : English\r\nDefault                        : No\r\nForced                         : No","torrent":{"xt":"urn:btih:e7633dbfb7b17d848852f235ba39ecfe82cee288","amp;dn":"Os+Pinguins+de+Madagascar+720p+HDRip+Dual+%26Aacute%3Budio+-+%5Bjcmoc%5D","amp;tr":["udp%3A%2F%2Ftracker.leechers-paradise.org%3A6969","udp%3A%2F%2Fzer0day.ch%3A1337","udp%3A%2F%2Fopen.demonii.com%3A1337","udp%3A%2F%2Ftracker.coppersurfer.tk%3A6969","udp%3A%2F%2Fexodus.desync.com%3A6969"],"infoHash":"e7633dbfb7b17d848852f235ba39ecfe82cee288","infoHashBuffer":{"type":"Buffer","data":[231,99,61,191,183,177,125,132,136,82,242,53,186,57,236,254,130,206,226,136]},"announce":[],"urlList":[]}}